<svg xmlns="http://www.w3.org/2000/svg" viewBox="0 0 66 66" id="barbecue">
  <path d="M55.8 59.71L47.24 43.49A21.82 21.82 0 0 0 55 27.62a1 1 0 0 0-1-1H12.14a1 1 0 0 0-1 1 21.85 21.85 0 0 0 7.79 15.91L10.17 60.4a3.23 3.23 0 0 0 1.55 4.29A3.21 3.21 0 0 0 16 63.18L24.5 47a22 22 0 0 0 17.19 0L50 62.54a3.25 3.25 0 0 0 2.92 1.83 3.32 3.32 0 0 0 1.39-.32 3.24 3.24 0 0 0 1.49-4.34zM14.2 62.29a1.23 1.23 0 0 1-2.24-1l8.58-16.52a23.32 23.32 0 0 0 2.15 1.32zm-1-33.71h39.7a19.93 19.93 0 0 1-39.7 0zm40.86 33a1.23 1.23 0 0 1-2.28.08l-8.3-15.57a22.45 22.45 0 0 0 2.14-1.33L54 60.61A1.23 1.23 0 0 1 54.07 61.55zM15.36 17.3a.92.92 0 0 0 .36-.07l1.44-.55a5.34 5.34 0 0 0 .41 2 5.47 5.47 0 0 0 3.3 3.07 39.07 39.07 0 0 0 12.31 2 39.07 39.07 0 0 0 12.31-2 5.45 5.45 0 0 0 3.3-3.07A5.23 5.23 0 0 0 49.2 17l1 .52a1 1 0 0 0 .47.12 1 1 0 0 0 .89-.54 1 1 0 0 0-.42-1.35l-1.54-.81 1.24-1.47a1 1 0 1 0-1.53-1.29l-1.05 1.25A5.45 5.45 0 0 0 42 11.26a28 28 0 0 1-17.69 0 5.42 5.42 0 0 0-6 1.88L17.68 12a1 1 0 0 0-1.37-.35A1 1 0 0 0 16 13.06l.94 1.57L15 15.37a1 1 0 0 0-.58 1.29A1 1 0 0 0 15.36 17.3zM22.65 13a3.21 3.21 0 0 1 1.05.17c.51.17 1 .3 1.55.45a6.81 6.81 0 0 0-.71 3.19 1 1 0 1 0 2 0 4.5 4.5 0 0 1 .74-2.71c.45.08.89.18 1.33.25a8.61 8.61 0 0 0-.39 3.08 1 1 0 0 0 1 .95h.05a1 1 0 0 0 .95-1.05 6.35 6.35 0 0 1 .43-2.73c.46 0 .92.05 1.38.07a17.25 17.25 0 0 1 .15 2.67 1 1 0 0 0 1 1h0a1 1 0 0 0 1-1A18.53 18.53 0 0 0 34 14.66c.58 0 1.15 0 1.72-.08a6.29 6.29 0 0 1 .44 2.73 1 1 0 0 0 .94 1.05h.06a1 1 0 0 0 1-.95 8.67 8.67 0 0 0-.39-3.09c.44-.07.88-.16 1.32-.25a4.49 4.49 0 0 1 .76 2.72 1 1 0 1 0 2 0 6.89 6.89 0 0 0-.72-3.21c.5-.13 1-.27 1.5-.43A3.46 3.46 0 0 1 46.84 15l.26-.11s0 0 0 0l-.24.11v0a3.46 3.46 0 0 1-2 4.82 37.14 37.14 0 0 1-23.35 0 3.4 3.4 0 0 1-2.09-1.94 3.56 3.56 0 0 1 .12-3A3.48 3.48 0 0 1 22.65 13zM26.05 5.49a4 4 0 0 1 .44.61 1.39 1.39 0 0 1-.23 1.66 1 1 0 0 0 .27 2 1.26 1.26 0 0 0 .27 0 2.82 2.82 0 0 0 1.6-1.62 3.35 3.35 0 0 0-.14-2.91 6 6 0 0 0-.66-.92l-.1-.13a1 1 0 0 1-.15-.73.66.66 0 0 1 .31-.45 1 1 0 0 0-.73-1.86A2.6 2.6 0 0 0 25.4 3a2.91 2.91 0 0 0 .54 2.38zM32.05 5.49a4.79 4.79 0 0 1 .44.61 1.41 1.41 0 0 1-.23 1.66 1 1 0 0 0 .26 2 1.26 1.26 0 0 0 .27 0A2.81 2.81 0 0 0 34.4 8.07a3.32 3.32 0 0 0-.15-2.91 5.38 5.38 0 0 0-.65-.92l-.1-.13a1 1 0 0 1-.15-.73.65.65 0 0 1 .31-.45 1 1 0 0 0-.74-1.86A2.62 2.62 0 0 0 31.39 3a3 3 0 0 0 .54 2.38zM38 5.49a4 4 0 0 1 .44.61 1.39 1.39 0 0 1-.23 1.66 1 1 0 0 0 .27 2 1.26 1.26 0 0 0 .27 0 2.8 2.8 0 0 0 1.6-1.62 3.28 3.28 0 0 0-.14-2.91 6.9 6.9 0 0 0-.65-.93l-.11-.13a1 1 0 0 1-.14-.72.65.65 0 0 1 .3-.45 1 1 0 1 0-.73-1.86A2.6 2.6 0 0 0 37.39 3a3 3 0 0 0 .54 2.38z"></path>
</svg>
